HIERARCHY
ROOT cyl_med
{
	OFFSET 0.000000 0.000000 0.000000
	CHANNELS 6 Xposition Yposition Zposition Yrotation Xrotation Zrotation
	End Site
	{
		OFFSET 0.000000 0.000000 0.000000
	}
}
MOTION
Frames: 133
Frame Time: 0.008333334
-2.578239 2.488071 3.613668 -56.259190 50.236020 3.411738 
-2.569229 2.505380 3.611001 -56.246060 49.841590 3.409151 
-2.559171 2.524098 3.608277 -56.380950 49.377450 3.130566 
-2.547871 2.544407 3.606189 -56.099950 48.999650 3.019569 
-2.535249 2.566648 3.605033 -55.840520 48.171650 2.937595 
-2.520594 2.591895 3.603092 -55.517330 47.436030 2.805454 
-2.504350 2.619494 3.598457 -55.056950 46.439790 2.907840 
-2.485718 2.650558 3.593665 -54.535160 45.364270 2.981509 
-2.464694 2.683664 3.589440 -54.095030 44.266750 2.853495 
-2.441448 2.720204 3.585361 -53.731170 42.932560 2.735265 
-2.416954 2.758993 3.583933 -53.451390 41.845480 2.296467 
-2.391720 2.799834 3.584898 -53.269840 40.811200 1.761020 
-2.364276 2.843596 3.587939 -53.102660 39.859500 1.085435 
-2.334917 2.890491 3.593925 -52.985110 38.684080 0.263273 
-2.302339 2.941296 3.602122 -52.723210 37.689330 -0.508514 
-2.266336 2.997530 3.610674 -52.315430 36.425480 -1.574707 
-2.225148 3.057524 3.619845 -51.814000 35.186550 -2.575165 
-2.179843 3.121755 3.627507 -51.086670 33.548180 -3.560394 
-2.129279 3.190426 3.634967 -50.280330 31.803320 -4.632507 
-2.074025 3.261546 3.643220 -49.405790 30.004630 -5.827515 
-2.014228 3.335332 3.652904 -48.628970 28.211210 -7.198730 
-1.951423 3.411477 3.663063 -47.698520 26.492460 -8.879303 
-1.883252 3.488026 3.674754 -46.851010 24.600520 -10.624880 
-1.810385 3.565148 3.687665 -45.995790 22.742130 -12.594820 
-1.735067 3.640030 3.701074 -45.201840 20.870730 -14.769990 
-1.657744 3.712552 3.712827 -44.289670 19.035710 -16.880280 
-1.579435 3.779883 3.723366 -43.359500 17.177890 -19.177280 
-1.503813 3.842580 3.729541 -42.325070 15.243060 -21.277950 
-1.432553 3.896116 3.734835 -41.387510 13.307010 -23.411190 
-1.366760 3.942454 3.737688 -40.298770 11.532810 -25.322880 
-1.309344 3.981632 3.736953 -39.231570 9.836664 -27.246920 
-1.261395 4.014349 3.732446 -38.081480 8.191875 -28.754940 
-1.222640 4.041780 3.722365 -37.093630 6.525769 -30.088530 
-1.194520 4.064141 3.710473 -36.360020 4.933962 -31.161100 
-1.174348 4.080484 3.697560 -35.766910 3.274298 -32.195830 
-1.161155 4.090189 3.685803 -35.329530 1.697440 -33.126620 
-1.154122 4.091293 3.677149 -35.002620 0.046945 -34.071290 
-1.161226 4.087933 3.675159 -35.384920 0.136236 -34.249330 
-1.192857 4.077895 3.684330 -36.554720 1.845176 -33.243290 
-1.249569 4.058347 3.698193 -38.265380 4.633098 -31.000980 
-1.322317 4.036664 3.693784 -39.743840 7.134065 -27.351870 
-1.393917 4.009862 3.663455 -40.060550 8.571235 -23.125490 
-1.446547 3.974461 3.623366 -39.828310 8.491905 -19.491730 
-1.479605 3.932666 3.591948 -39.303890 8.448493 -17.379430 
-1.497657 3.888345 3.568498 -38.761230 8.281122 -16.346160 
-1.509297 3.845238 3.545051 -38.404850 8.017094 -15.315160 
-1.520709 3.803518 3.521399 -38.455510 7.605715 -14.097170 
-1.530837 3.763048 3.500460 -38.674410 7.394793 -13.021850 
-1.541040 3.723665 3.483284 -38.794590 7.310071 -12.123230 
-1.550614 3.685147 3.470443 -39.103420 7.442207 -11.312290 
-1.562400 3.647766 3.460977 -39.551820 7.741442 -10.445560 
-1.577618 3.613064 3.453312 -40.060180 8.383152 -9.570068 
-1.593473 3.579564 3.451713 -40.695620 9.221997 -8.665375 
-1.609062 3.548391 3.452400 -41.357700 10.127890 -8.024872 
-1.626402 3.518398 3.456793 -41.869450 11.167480 -7.423096 
-1.643693 3.489179 3.462714 -42.206420 12.259030 -6.841888 
-1.660935 3.461695 3.468553 -42.630920 13.295700 -6.411041 
-1.678203 3.435090 3.474691 -42.881040 14.160630 -5.929108 
-1.694612 3.410069 3.479973 -43.159670 15.094070 -5.530548 
-1.711009 3.386094 3.485019 -43.411740 15.909600 -5.221130 
-1.728890 3.363788 3.489214 -43.788360 16.731660 -4.749298 
-1.746092 3.343060 3.491998 -44.054780 17.451680 -4.369263 
-1.761811 3.322685 3.495655 -44.351750 18.109040 -3.994873 
-1.777521 3.305760 3.499160 -44.606410 18.796800 -3.663086 
-1.792130 3.289742 3.504004 -44.983310 19.494020 -3.522675 
-1.805027 3.275246 3.509795 -45.214140 20.197850 -3.465424 
-1.817412 3.262740 3.516318 -45.494960 20.846120 -3.360352 
-1.828857 3.252422 3.523828 -45.868040 21.567420 -3.380402 
-1.840096 3.244023 3.531345 -46.297550 22.159580 -3.466797 
-1.851040 3.237196 3.539294 -46.734500 22.898550 -3.576141 
-1.862384 3.232043 3.546819 -47.306820 23.484080 -3.697571 
-1.873726 3.229581 3.554423 -47.884030 24.242730 -3.743469 
-1.885764 3.229151 3.563269 -48.557740 25.112790 -3.993927 
-1.895557 3.231301 3.574030 -49.258000 25.988190 -4.296631 
-1.904725 3.236949 3.586357 -49.915500 26.895510 -4.603210 
-1.911805 3.246725 3.601234 -50.556430 27.790450 -5.020477 
-1.916257 3.260356 3.617001 -51.242920 28.734880 -5.624420 
-1.917242 3.279855 3.632797 -51.726870 29.547700 -6.084167 
-1.911875 3.306242 3.648194 -52.250210 30.118750 -6.622498 
-1.899378 3.340805 3.660987 -52.605410 30.385020 -7.135406 
-1.876106 3.384858 3.672027 -52.841250 30.158790 -7.733826 
-1.841338 3.438855 3.679795 -52.820920 29.583100 -8.229950 
-1.794813 3.502950 3.683891 -52.734530 28.625780 -8.809570 
-1.736858 3.576089 3.686220 -52.307680 27.152070 -9.350128 
-1.670145 3.655833 3.687406 -52.048890 25.621510 -9.956421 
-1.594607 3.741554 3.689247 -51.686040 23.942790 -10.651790 
-1.511488 3.831267 3.693108 -51.448390 22.184500 -11.562870 
-1.421126 3.923685 3.699965 -51.322080 20.350840 -12.593410 
-1.323697 4.017402 3.709768 -51.229550 18.513740 -13.990570 
-1.220642 4.110579 3.721491 -51.121220 16.640830 -15.367710 
-1.113149 4.202246 3.733814 -51.000090 14.774110 -16.961850 
-1.002839 4.288298 3.746550 -50.601650 12.761570 -18.563630 
-0.890319 4.370167 3.758837 -49.738980 10.726240 -20.114320 
-0.777169 4.445352 3.768384 -48.467190 8.698242 -21.832340 
-0.665208 4.511323 3.776505 -46.942990 6.521462 -23.525330 
-0.558817 4.569470 3.780201 -45.008120 4.630034 -25.088680 
-0.459906 4.616037 3.782966 -42.973390 2.543563 -26.846040 
-0.371446 4.651656 3.783203 -40.761140 0.775151 -28.509460 
-0.296118 4.678171 3.780201 -38.442750 -0.838806 -30.010830 
-0.236190 4.694048 3.774557 -36.092010 -2.128021 -31.531130 
-0.193381 4.699341 3.765875 -33.296080 -3.215515 -32.968540 
-0.169247 4.695099 3.753524 -30.793790 -4.167664 -34.082090 
-0.166844 4.680462 3.739349 -28.081730 -4.927399 -34.984010 
-0.183766 4.656209 3.721829 -25.467930 -5.415985 -35.744930 
-0.224064 4.623582 3.704562 -23.105380 -5.852478 -35.849180 
-0.289737 4.584340 3.686869 -21.281770 -5.972137 -35.505680 
-0.381584 4.538530 3.669947 -19.913120 -6.075562 -34.286160 
-0.498614 4.485818 3.654875 -19.194850 -6.066040 -32.177430 
-0.641323 4.425912 3.641119 -19.210110 -5.787170 -29.206120 
-0.809589 4.355807 3.632522 -19.893770 -4.999420 -25.307010 
-1.003340 4.273464 3.633128 -21.176330 -3.559052 -20.457920 
-1.220554 4.173401 3.643620 -23.015170 -0.941528 -15.027530 
-1.455080 4.050196 3.664818 -25.057160 3.106340 -8.971100 
-1.698342 3.897362 3.700115 -27.104250 8.365928 -3.101990 
-1.938581 3.712471 3.747114 -28.847110 15.014180 2.572768 
-2.171032 3.495970 3.797115 -29.922150 22.378690 7.907129 
-2.383794 3.249258 3.841388 -30.174680 29.981870 13.312820 
-2.569191 2.984227 3.874198 -29.333100 37.135800 18.920540 
-2.720977 2.713521 3.898839 -27.562230 43.854770 24.742910 
-2.837010 2.450603 3.919411 -24.908050 49.703740 30.700540 
-2.919455 2.207616 3.938151 -21.262600 54.741630 36.702340 
-2.969321 1.998103 3.960431 -16.754210 58.529120 42.343760 
-2.991666 1.830726 3.983963 -12.178440 60.818660 47.289430 
-2.995136 1.708606 4.003010 -8.521790 61.682750 50.759240 
-2.984439 1.631990 4.011965 -6.776642 61.437750 52.313010 
-2.966233 1.594370 4.011695 -6.576050 60.932620 52.243960 
-2.941142 1.587796 4.005743 -7.741730 60.390210 51.000810 
-2.913885 1.603975 3.997168 -9.517700 60.234280 49.070240 
-2.883389 1.638182 3.986133 -11.782410 60.166660 46.639880 
-2.852490 1.686591 3.973360 -14.395360 60.054810 43.988330 
-2.821088 1.748932 3.957852 -16.969790 59.751850 41.198380 
-2.787315 1.823005 3.943069 -19.411190 59.222620 38.477530 
-2.749648 1.910810 3.926368 -21.651340 58.316700 35.715350 
